# xmcd
#
# Track frame offsets: 
#        150
#        16336
#        34089
#        53373
#        70944
#        89633
#        108363
#        128391
#        147993
#        169005
#        189912
#        209289
#        228315
#        245090
#
# Disc length: 3505 seconds
#
# Revision: 0
# Processed by: cddbd v1.5.2PL0 Copyright (c) Steve Scherf et al.
# Submitted via: ExactAudioCopyFreeDBPlugin 1.0
#
DISCID=b60daf0e
DTITLE=樊桐舟 - DTS51绝色I
DYEAR=2000
DGENRE=DTS
TTITLE0=黑鸭子樊桐舟 - 突然的自我
TTITLE1=黑鸭子樊桐舟 - 寂寞沙洲冷
TTITLE2=黑鸭子樊桐舟 - 不要怪我
TTITLE3=黑鸭子樊桐舟 - 心醉
TTITLE4=黑鸭子樊桐舟 - 爱的可能
TTITLE5=黑鸭子樊桐舟 - 最远的你是我最近的爱
TTITLE6=黑鸭子樊桐舟 - 不让我的眼泪陪我过夜
TTITLE7=黑鸭子樊桐舟 - 断点
TTITLE8=黑鸭子樊桐舟 - 末班车
TTITLE9=黑鸭子樊桐舟 - 我们的爱
TTITLE10=黑鸭子樊桐舟 - 不要再来伤害我
TTITLE11=黑鸭子樊桐舟 - 我只能爱你
TTITLE12=黑鸭子樊桐舟 - 如果这都不算爱
TTITLE13=黑鸭子樊桐舟 - 你到底爱谁(英文版)
EXTD=
EXTT0=
EXTT1=
EXTT2=
EXTT3=
EXTT4=
EXTT5=
EXTT6=
EXTT7=
EXTT8=
EXTT9=
EXTT10=
EXTT11=
EXTT12=
EXTT13=
PLAYORDER=
